<svg xmlns="http://www.w3.org/2000/svg" width="398.333" height="239"><style><![CDATA[.AB{fill:#0d2135}.AC{fill:#de9885}.AD{fill:#fff}.AE{fill:#f0eae3}.AF{fill:#ffe8e2}.AG{fill:#955646}.AH{fill:#808d38}.AI{fill:#71c28f}.AJ{fill:#edf6f2}.AK{fill:#edeeef}.AL{fill:#5b6a6b}.AM{fill:#95abc1}.AN{fill:#3b4444}.AO{fill:#798c9b}.AP{fill:#57697b}.AQ{fill:#ce956f}.AR{fill:#f0b5a5}]]></style><path d="M23.502 60.646c-.05.1-.05.25-.1.4h.15c0-.15-.05-.3-.05-.4z" class="AF"/><path d="M207.53 66.173a1.16 1.16 0 0 1-1.145-1.145 1.1 1.1 0 0 1 .05-.4v-.05c.35-.75 1.07-1.26 1.892-1.344 2.938-.25 3.137-.3 3.784-2.987.3-1.544 1.444-1 1.643-1.892.2-.8-.35-1.842-.15-3.585a3.5 3.5 0 0 1 .149-.7 8.61 8.61 0 0 0-7.269-9.707 8.74 8.74 0 0 0-4.481.548h.05a5 5 0 0 1 4.929 4.88v4.033c0-.05-.05-.1-.05-.15v.15c-.195-1.1-1.24-1.833-2.34-1.643a2.1 2.1 0 0 0-1.593 1.544.74.74 0 0 0-.05.349h-.05l-.15.946c-.117.886-.58 1.69-1.292 2.23s-1.607.78-2.492.657a3.04 3.04 0 0 1-.647-.149l-.448-.15c.847 2.44.5 5.527-1 7.22.25.407.45.84.6 1.295h10.058zm11.253 20.664l-2.5 1.394.7 5.676a5.81 5.81 0 0 0 6.423-.448l14.788-11.2 1.793-10.058c.094-.532-.228-1.05-.747-1.2l-1 1.046c-.232.246-.373.563-.4.9l-.15 1.942c-.105.958-.66 1.808-1.494 2.3l-11.95 6.573z" class="AG"/><path d="M198.37 57.812l.647.15a3.31 3.31 0 0 0 3.734-2.888c.1-.3.25-.946.25-.946a.97.97 0 0 1 .05-.349 2.1 2.1 0 0 1 1.593-1.544 2.42 2.42 0 0 1 .847 0 2 2 0 0 1 1.494 1.444c0 .05.05.1.05.15v-4.035a5 5 0 0 0-4.929-4.88h-.05c-1.04.43-1.985 1.055-2.788 1.842-.242.225-.458.476-.647.747a8.27 8.27 0 0 0-1.295 2.34 4.88 4.88 0 0 0-.249.8 1.77 1.77 0 0 0-.1.5 8.72 8.72 0 0 0 .249 4.382l.747 2.14c.13.058.262.107.398.148z" class="AK"/><path d="M214.602 105.707a.5.5 0 0 1 .5.348v.2c0 .1-.05.15-.15.2.614-.358 1.3-.595 1.992-.7l-1-.548-1.046-.548-.9 1.195.6-.1c-.05-.05-.05-.05 0-.05zm.1.946l-2.69 1.295c-.55.353-1.19.543-1.842.548l-1.842.05h4.78a3.7 3.7 0 0 1 1.593-1.893zm3.386-1.245c0 .05-.05.15-.05.2h.4l-.15-1.046-.9-.05.448.3a.54.54 0 0 1 .251.597zm-24.5-22.207zm3.934-16.98a11.64 11.64 0 0 1 .448 1.892c.05 2.19 1.1 3.236 1.1 4.133s-1.245.7-1.1 2.24c.1 2.788-.1 2.838-2.888 3.834-1.842.647-1.743 3.187-1.444 4.88 2.988 6.622 7.32 7.917 5.676 20.664h3.983v1.494l4.83-.25a4.4 4.4 0 0 0 2.788-.946l2.695-2.042a1 1 0 0 1 .4-.2 1.93 1.93 0 0 1 1.295-.149l2.838.747-1.1-8.664-.7-5.676 2.5-1.394L224.3 83.7 217.29 71c-1.4-2.487-3.82-4.22-6.622-4.73a6.1 6.1 0 0 0-.946-.1c-.2 0-.448-.05-.647-.05h-1.494l-10.058.1z" fill="#65684e"/><path d="M188.96 131.002zm-.4 0zm17.576 37.294a7.91 7.91 0 0 0 .349 1c.355.848.86 1.624 1.494 2.3.794.754 1.804 1.24 2.888 1.394a9.72 9.72 0 0 0 1.145.1l-.1-12.2-.05-.25-5.13-.7c-.097 1.543-1.49 5.228-.595 8.365zm-6.722-9.41l1.444.2zm-4.182-23.1h-5.674l-1.394 6.672-1.1 33.012h8.714l-.6-39.684z" class="AB"/><path d="M244.178 107.3c.642-.757.9-1.767.7-2.74L241.5 86.737l-.4 2.24 2.988 15.734a2.47 2.47 0 0 1-.548 2.091 2.63 2.63 0 0 1-1.992.946h-7.416a.43.43 0 0 0-.4.4c-.002.107.04.2.115.285s.178.117.285.115h7.52a3.23 3.23 0 0 0 2.537-1.248z" class="AL"/><path d="M241.5 86.737l4.282-24.448a1.92 1.92 0 0 0-1.544-2.241h-.15a1.85 1.85 0 0 0-2.191 1.544l-6.373 36.3a1.92 1.92 0 0 0 1.544 2.241l.15.05a1.85 1.85 0 0 0 2.191-1.544l1.693-9.56z" class="AM"/><path d="M228.09 157.143h15.037l4.93 18.373h.05l.4-.1-16.378-61.144h-.448l-3.635 13.494c.042.4.058.8.05 1.2v.25l3.784-14.09 11.153 41.676H228.09v.348zm-9.062 4.43l-1.743 6.373.2.846 1.942-7.17h-.05z" class="AN"/><path d="M263.15 108.596c-.038-.005-.073-.023-.1-.05H224.36l.05.05h-11.253c0-.013.005-.026.014-.036s.022-.015.036-.014h-5.13l-2.738.647v5.08h61.045v-4.726a7.39 7.39 0 0 1-3.237-.95z" class="AO"/><path d="M212.063 107.9l2.64-1.295.25-.15c.05-.05.1-.15.15-.2v-.2a.49.49 0 0 0-.349-.349h-.2l-.6.1-.7.946-.25.3c-.25.345-.57.633-.94.847zm5.975-2.3a.3.3 0 0 0 .05-.2.57.57 0 0 0-.249-.6l-.448-.3-2.24-.2-.25.35 1.046.548 1 .548c.355-.1.722-.15 1.09-.145z" fill="#bf7461"/><path d="M213.955 101.974c-.122.056-.238.123-.348.2l-2.69 2.04c-.804.605-1.78.937-2.788.946l-4.88.25v4.282l1.992-.5 2.74-.647h.2l2.04-.05c.653-.005 1.292-.195 1.842-.548a4.28 4.28 0 0 0 1-.9l.25-.3.7-.946.9-1.2.25-.35 2.24.2.946.1 2.74.2c.263.01.51-.124.647-.35a.65.65 0 0 0-.2-.9c-.05-.05-.15-.05-.2-.1l-3.236-.846-2.838-.747a1.93 1.93 0 0 0-1.306.164z" class="AC"/><path d="M199.117 135.782l-.05-4.73h-21.5v4.73h21.56z" class="AG"/><path d="M198.768 174.072a13.57 13.57 0 0 1 .349-3.734l.05-.8v-.448l.2-10.157h.05l-.25-23.1h-3.885l.1 6.423.548 33.062h2.987a5.65 5.65 0 0 1-.15-1.246z" class="AD"/><path d="M215.747 161.126l-3.934-.548.05.25.05.1 3.535 13.892.1.448v.05h3.336l-1.444-6.523-.2-.846zm-39.684 14.2h3.336l10.157-39.534h-4.63z" class="AM"/><path d="M207.183 173.773a3.2 3.2 0 0 1 .8-2.191c-.644-.658-1.15-1.436-1.494-2.3-.146-.322-.263-.657-.35-1-.846-3.087.5-6.822.548-8.415l-3.933-.548-3.338-.444h-.05l-.2 10.606-.05.8c2.285 1.933 5.092 3.145 8.066 3.482z" class="AC"/><path d="M215.45 174.92c-.747-1.743-2.042-1.792-3.436-1.892-.383-.01-.766-.042-1.145-.1a4.94 4.94 0 0 1-2.888-1.394c-.528.606-.813 1.387-.8 2.19a14.69 14.69 0 0 1-8.063-3.436 13.58 13.58 0 0 0-.349 3.734 11.4 11.4 0 0 0 .1 1.245h16.73v-.05a1.66 1.66 0 0 1-.149-.298z" class="AP"/><path d="M188.11 114.372a18.77 18.77 0 0 0-11.1 3.983s1.892 11.9 11.552 12.647h10.456l.3 27.88 1.444.2 1.892.25 3.934.548 5.13.7 7.17.996.4.05 8.664 1.195v-33.86a9.6 9.6 0 0 0-.05-1.195c-.603-7.586-6.932-13.438-14.542-13.444h-14.4z" fill="#dc6240"/><path d="M193.6 83.202c-.3-1.693-.35-4.232 1.494-4.88 2.788-1 2.988-1.1 2.888-3.834-.1-1.544 1.1-1.344 1.1-2.24s-1.046-1.942-1.1-4.133a6.18 6.18 0 0 0-.448-1.892c-.15-.454-.35-.888-.6-1.295l-.25-.4-.1.2c-.194.487-.57.88-1.046 1.1-.48.212-1.043.09-1.394-.3-.256 1.03-.897 1.92-1.792 2.5-.2.145-.416.263-.647.35-.15.5-.25 1.046-.35 1.544-.05.2-.05.4-.1.6a7.42 7.42 0 0 0-.1 1.046c-.142 1.95-.007 3.913.4 5.826.197 1.013.464 2.012.8 2.988a18.14 18.14 0 0 0 1.245 2.838z" class="AC"/><path d="M203.25 109.74v-5.826h-3.983c1.693-12.747-2.7-14.04-5.676-20.664a6.66 6.66 0 0 1-2.09 1.593c-4.382 2.2-11.552.846-13.792 4.182 0 0-2.6 16.93-.7 29.327a18.45 18.45 0 0 1 11.1-3.983h23.2v-.05h-6.124v-5.08zm-11.253-42.222c-.1.25-.15.548-.25.8 1.206-.52 2.106-1.567 2.44-2.838a1.32 1.32 0 0 0 1.394.3 2.05 2.05 0 0 0 1.046-1.1l.1-.2a8.52 8.52 0 0 0-2.09-2.3 17.24 17.24 0 0 0-2.64 5.328z" class="AB"/><path d="M193.6 83.202q-.672-1.42-1.195-2.838c-.336-.976-.603-1.974-.8-2.987-.382-1.917-.517-3.875-.4-5.826l.1-1.046c.05-.2.05-.4.1-.6l.35-1.544a5.44 5.44 0 0 1 .249-.846c.595-1.888 1.486-3.67 2.64-5.278-.188-.15-.39-.284-.6-.4l-.15-.1a1.56 1.56 0 0 0-.5-.249l-.2-.1-.75-.3c-.2-.05-.4-.15-.6-.2l-.1-.05h-.05l-.698-.2-.25-.05-.448-.05-.2-.05c-.2 0-.448-.05-.647-.05-2.27 0-4.45.902-6.056 2.508s-2.508 3.784-2.508 6.056a9.09 9.09 0 0 0 .249 1.992v.05c1.2 6.373-1.842 6.92-3.436 17.925 2.3-3.336 9.46-2.04 13.842-4.182a6.16 6.16 0 0 0 2.041-1.593z" class="AP"/><path d="M218.038 105.608c-.372 0-.742.05-1.1.15-.688.158-1.356.393-1.992.7l-.25.15a4.2 4.2 0 0 0-1.593 1.892c0 .013-.005.026-.014.036s-.022.015-.036.014h11.253l-.05-.05c-.946-1.942-3.436-2.987-5.875-2.938-.11.045-.23.062-.35.05z" class="AB"/><path d="M25.643 26.54l-.15 1.046zM16.93 57.36zm0-.05l.05-2.5-.05 2.5z" class="AF"/><path d="M24.248 60.592c0 .15.05.3.05.448h.5l-.2-1.494.1-.3c-.1-.26-.157-.528-.2-.8l-.5-2.34.3-.1-.25-3.834c-.05 0-.15.05-.2.05h-.1c.017-.75.084-1.5.2-2.24v-.1l.1-7.917-.5-.35-.15 6.124c.005.038.023.073.05.1.332 1.303.366 2.665.1 3.983l.548 7.618-.5 1.544h.5c.04-.136.09-.27.15-.4zm2.24-5.577c1.054-2.1 2.395-4.044 3.983-5.776l-1 .448c-.05 0-.1.05-.15.05-1.4 1.7-2.588 3.547-3.535 5.527zm-1.046-27.48l.2-1.046v-.25c.014-.125-.022-.25-.1-.35-.08-.077-.2-.114-.3-.1l-.548 3.635c.136-.223.253-.457.35-.7a6.72 6.72 0 0 0 .4-1.2zm-.548 4.183c-.3.747-.5 1.544-.747 2.3l-.5 6.324.548-1.1.7-7.515zm-2.688 29.274a66.07 66.07 0 0 0-4.979-11.748v.448l-.05.5c1.8 3.45 3.298 7.048 4.48 10.755.122.01.24.044.35.1l.2-.05z" fill="#154b2e"/><path d="M24.05 52.132h.1a18.62 18.62 0 0 0 3.286-1.245c.647-.3 1.295-.7 1.942-1.046.05 0 .1-.05.15-.05a8.76 8.76 0 0 1 1-.448c.038-.005.073-.023.1-.05a6.25 6.25 0 0 1 2.29-.6 1.22 1.22 0 0 1 1 .249c.448.448.05 1.245-.4 1.693a19.79 19.79 0 0 1-6.871 4.481l-.7.3-1.544.6-.3.1.5 2.34.2.8c.05.15.1.35.15.548 2.838-1.892 5.377-4.332 8.465-5.975.332-.237.753-.3 1.145-.2.367.165.588.546.548.946a1.98 1.98 0 0 1-.448 1.046c-.554.703-1.19 1.338-1.892 1.892a56.42 56.42 0 0 1-4.929 3.585h4.78v-.05c.6-.958 1.42-1.76 2.4-2.34a.72.72 0 0 1 .349-.1c.25.05.3.4.3.647a7.15 7.15 0 0 1-.349 1.792h7.32a1.38 1.38 0 0 1 .05-.448 3.07 3.07 0 0 1 1-1.892c.6-.5 1.394-.7 1.992-1.145.146-.12.28-.254.4-.4-1-.5-1.992-.946-2.988-1.494-.448-.25-1-.747-.7-1.195.2-.3.7-.25 1.046-.15 1.494.4 2.988.846 4.48 1.295 1-.25 2.14.05 3.137-.35.5-.2.946-.548 1.444-.8.242-.1.492-.157.747-.2v-.5l-8.465-2.987c-.94-.297-1.84-.7-2.69-1.2-.4-.25-.747-.747-.5-1.1s.647-.3 1.046-.25a66.73 66.73 0 0 1 10.307 2.689c-.366-2.242-1.088-4.4-2.14-6.423-.707-1.484-1.836-2.726-3.246-3.57-.952-.498-2.012-.754-3.087-.747-.687 1.035-1.545 1.944-2.54 2.69l-.15.1c-.462-.59-.832-1.243-1.1-1.942-.5.2-.946.4-1.394.6.23.802.413 1.617.548 2.44-1.37.6-2.836.982-4.332 1.1l.15-2.09a24.42 24.42 0 0 1-3.336.349c-.05.548-.05 1.1-.1 1.643h-.05a17.3 17.3 0 0 1-3.535-.8.63.63 0 0 0 .05-.3v-.05a4.53 4.53 0 0 0-1.792.747 7.52 7.52 0 0 0-2.833 5.175v.1c-.116.725-.183 1.457-.2 2.19.05.05.1 0 .2 0z" fill="#209959"/><path d="M28.43 44.215c1.147.4 2.332.658 3.535.8 0-.548.05-1.1.1-1.643l.8-8.614a2.09 2.09 0 0 1 .3-1.046 1 1 0 0 1 .9-.5c.4.1.647.548.8.946a14.34 14.34 0 0 1 .647 4.83l-.1 3.983-.15 2.09a11.83 11.83 0 0 0 4.332-1.1 19.3 19.3 0 0 0-.548-2.44l-.448-1.444c-.4-1.046-.846-2.24-.35-3.187a.6.6 0 0 1 .249-.249c.2-.05.35.15.448.3a15.68 15.68 0 0 1 1.444 3.784l.1.2c.248.708.62 1.365 1.1 1.942l.15-.1c.994-.745 1.852-1.654 2.54-2.69a11.86 11.86 0 0 0 .9-1.494l-4.53-3.286c-1.025-.69-1.81-1.68-2.24-2.838-.1-.35-.05-.9.35-.946a.82.82 0 0 1 .5.1c1.544.8 2.888 1.942 4.382 2.888a9.88 9.88 0 0 0 2.639 1.245 15.05 15.05 0 0 0 .4-4.481q-2.763-.448-5.527-1.046a17.17 17.17 0 0 1-5.626-1.942c-.5-.3-1-.946-.7-1.444.29-.284.7-.413 1.1-.35 3.087.2 6.025 1.593 9.162 1.494.184.008.368-.01.548-.05l.5-.05a17.98 17.98 0 0 0-.846-2.29c-.365-.854-.78-1.686-1.245-2.5-3.98.778-8.004 1.3-12.05 1.593a3.08 3.08 0 0 1-1.494-.149c-.242-.087-.44-.267-.546-.5s-.115-.5-.023-.74c.196-.323.526-.543.9-.6 2.103-.603 4.25-1.036 6.423-1.295 1.575-.246 3.104-.733 4.53-1.444l-.548-.6a16.43 16.43 0 0 0-2.539-2.39 34 34 0 0 1-7.867 3.236c-.6.15-1.394.25-1.643-.3-.14-.412-.003-.87.343-1.134a3.2 3.2 0 0 1 1.195-.5c1.83-.576 3.466-1.644 4.73-3.087a7.95 7.95 0 0 0-3.884-.4c-3.34.547-5.18 3.187-7.47 5.327-1.07.945-2.22 1.794-3.436 2.54l-.747 3.934c.216-.116.47-.134.7-.05.5.25.448.946.3 1.444a4.11 4.11 0 0 1-1 1.593l.35-.35a1.24 1.24 0 0 1-.9.747c-.25 1.444-.448 2.888-.647 4.282 1.217-1.158 2.243-2.5 3.04-3.98.846-1.544 1.544-3.336 3.087-4.282.112-.06.23-.11.35-.15a.24.24 0 0 1 .3.1.72.72 0 0 1 .1.349v.25c-.025.352-.075.7-.15 1.046l-.448 1.245a4.55 4.55 0 0 1-.349.7c-.25.448-.5.846-.747 1.245a46.98 46.98 0 0 1-4.83 6.523 25.02 25.02 0 0 0 2.141 2.44 16.95 16.95 0 0 0 2.539-4.78l.3-.946c.25-.747.448-1.544.747-2.3.15-.35.25-.7.4-1 .2-.4.5-.9.946-.9.45.06.813.4.9.846.05.42-.002.848-.15 1.245a48.72 48.72 0 0 1-2.797 7.369c-.2.4-.35.747-.548 1.1-.187.323-.354.657-.5 1l.448.3.5.35c.575.403 1.174.77 1.793 1.1a11.79 11.79 0 0 0 1.245-2.34 41.01 41.01 0 0 0 .946-4.929 2.18 2.18 0 0 1 .349-.946.84.84 0 0 1 .846-.349c.5.15.6.846.548 1.394a48.89 48.89 0 0 1-1.297 8.002v.05c.052-.001.052.1 0 .2zM18.473 59.8c.7-.7 1.394-1.394 2.04-2.14a24.11 24.11 0 0 1-3.436-5.477c-.05.846-.1 1.743-.1 2.59v.05c-.05.846-.05 1.643-.05 2.5v.05c.36.902.883 1.73 1.545 2.44zm4.98-11.95c-.005-.038-.023-.073-.05-.1-.142-.542-.36-1.062-.647-1.544-1.1-1.942-3.037-3.137-4.93-4.382l-.448 4.93c1.942 2.64 2.5 6.174 4.83 8.465a11.92 11.92 0 0 0 .647-1.394c.275-.64.476-1.307.6-1.992a7.22 7.22 0 0 0-.003-3.982z" fill="#40b674"/><path d="M20.813 95.895h-.4l.15.747.2.846.647 2.988h.15l-.946-4.332a.5.5 0 0 1 .201-.249zm21.908-33.21c-.14-.536-.207-1.09-.2-1.643v-.05H16.88v.1l.05 3.436v1.693h25.99c.05-.6.2-1.2.2-1.743a8.34 8.34 0 0 0-.4-1.792zm15.037 3.635c.35-.25.647-.548.946-.8l-.946.804zm-3.635 0c-.604-.308-1.3-.344-1.942-.1-.05 0-.1.05-.15.1a2.22 2.22 0 0 1 2.091 0z" fill="#74899f"/><path d="M51.036 67.168c.05-.05.05-.1.1-.15 0 .103-.05.103-.1.15zm-.15.4c0-.05.05-.05.05-.1-.05-.001-.05.05-.05.1zm1.1-1.245a2.42 2.42 0 0 0-.7.548c.05-.05.05-.1.1-.1a2.34 2.34 0 0 1 .592-.449zm-1.3 2.1zm4.083-1.643c.292.27.5.616.6 1 .376-.162.744-.345 1.1-.548l2.14.2-2.14-.2c.2-.1.4-.25.6-.35.242-.155.475-.322.7-.5-.25.15-.448.35-.7.5-.19.135-.4.252-.6.35a7.5 7.5 0 0 1-1.1.548 1.86 1.86 0 0 0-.6-1 1.41 1.41 0 0 0-.548-.4h-.05a1.4 1.4 0 0 1 .598.4zM19.12 88.878l.35 1.992.3 1.792.4 1.942.25 1.245h.448c1.776-2.296 4.516-3.638 7.42-3.635H38.44c1.793-7.668 6.87-9.56 9.062-12.05l7.718 3.685c.946.448 1.842.846 2.74 1.245v-.05L55.27 83.8 47.6 80.164h-.05l7.668 3.685-7.668-3.685h-.05c1.394-2.04 1.643-3.485.35-5.626a4.26 4.26 0 0 0 2.739-1.046c.316-.348.524-.78.6-1.245-.076.464-.284.897-.6 1.245a4.55 4.55 0 0 1-2.739 1.046 3.3 3.3 0 0 1-1.394-.249c-1.42-.538-2.38-1.87-2.44-3.386.1-.593.1-1.2 0-1.792-.2-.7-.8-1.2-1-1.892-.083-.292-.116-.597-.1-.9H16.98c0 .4.05.8.05 1.195.05.8.05 1.593.1 2.34.05.5.05.946.1 1.444l.15 2.44c.05.4.05.846.1 1.245a237.78 237.78 0 0 0 .9 8.714c.042.468.11.933.2 1.394l.3 2.09a19.74 19.74 0 0 0 .249 1.693z" fill="#c1ddf4"/><path d="M142.903 175.564v-.05l.05-.05h-.448l.35.05v.05zm-4.88-58.4l10.655 39.734h-5.626l.25.4h5.522l4.88 18.224h.05l.35-.1-15.88-59.358-.15 1z" class="AN"/><path d="M142.553 110.19h-4.033c0 1.544-.1 3.087-.25 4.63h24.5v-5.677h-20.218zm-67.816.4a7.55 7.55 0 0 1-4.536-1.446h-3.58c-.647 1.145-1.295 1.643-.747 3.386l.8 2.3H118.1l.946-4.58h.548v-.05h-4.88v-1.045h-35.4a8.17 8.17 0 0 1-4.581 1.444zM23.6 109.143l.9 2.987c.05.25.15.448.2.7l.647 1.992h.15l-1.743-5.676z" class="AO"/><path d="M145.74 109.044h3.585v-11.8h.05v-7.32h-3.635v19.12z" fill="#1b4481"/><path d="M142.554 107.052v2.04h3.187V93.708h-3.137v.448h-.05v.8h.05v8.07h-.05z" class="AP"/><path d="M149.325 109.043h2.44v-11.8h-2.44z" class="AB"/><path d="M155.25 109.043v-18.82h-3.482v18.82zm-75.883 0h14.59v-3.485h-12.05l-.1.2a6.68 6.68 0 0 1-2.438 3.285z" fill="#bc762e"/><path d="M83.3 102.123l-1.344 3.436h15.386v-3.436z" fill="#f9e8d7"/><path d="M84.302 99.583l-1 2.54h17.328v-2.54z" class="AL"/><path d="M100.63 99.583V95.3H86l-1.693 4.282z" fill="#6fa9dc"/><path d="M155.25 92.96h5.477v16.083h-5.477z" fill="#606e30"/><path d="M128.214 69.26v-.05l-3.834.7.05-.05z" class="AF"/><path d="M123.384 167.1z" class="AN"/><path d="M138.47 110.19H119.5v.05h13.743l-3.485 25.692.5 27.485 1.544 3.137 11.803-8.517-.4-.7-.25-.4-10.606-18.274a105.56 105.56 0 0 0 5.577-21.46v-.05l.15-1v-.05l.15-1.245c.203-1.547.285-3.108.246-4.668z" class="AB"/><path d="M135.333 52.878c0-.1-.05-.25-.05-.35v.2c-.007.055.012.11.05.15zM126.37 57.2v-1.743l.05-2.788c-2.6-.355-4.994-1.605-6.772-3.535-.446.727-.783 1.515-1 2.34-.206.847-.3 1.72-.25 2.59v.2a.85.85 0 0 0 .05.349c.052 1.014-.154 2.025-.6 2.938a.95.95 0 0 0 .5 1.295h.05l.846.3c.05.4.548 2.09.647 2.4.4 1.344 1.295 1.892 3.236 2.04 3.386.3 1 6.373 1 6.373l4.232-.747c-.813-2.3-1.332-4.69-1.544-7.12a30.1 30.1 0 0 1-.445-4.882z" class="AC"/><path d="M139.516 82.007h2.44l-.5-3.236h-8.116zm-11.3-12.747l-3.784.6h4.033a3.05 3.05 0 0 0-.252-.6zm-5.427 21.6l1.793 1.394.348-1.394zm2.5-4.033h-7.668l4.182 3.236h3.336l.846-3.236zm10.357 7.27h7.02v-.447l-.05-2.788h-5.826zm2.734-8.067h3.934l-.3-3.236h-2.534zm-1.344 4.033h5.477l-.15-3.236h-4.232l-.747 2.14zM129.1 73.94h1.942a11.97 11.97 0 0 1-2.191-3.236h-5.13l-1.394 3.236zm-1.1 4.83h-7.767l-1.245 3.236h8.172zm14.54 24.2h-12.4a8.44 8.44 0 0 1-7.718 0h-7.56l-.15 3.236h27.834zm-13.937-26.64l3.137 1.643h9.5a5.25 5.25 0 0 0-.249-.946c-.25.05-.5.05-.8.1-.25 0-.548.05-.8.05a11.5 11.5 0 0 1-7.519-2.34h-9.91l-1.394 3.236h7.618zM115.37 97.542l-.05.6h.846zm1.793 1.394h-1.893l-.3 3.236h6.224l-.1-.1zm9.81-16.132h-8.216l-1 3.236h8.414zm-12.3 27.385h27.933v-3.137H114.77l-.05 2.09c-.042.347-.058.697-.05 1.046zm27.933-11.253h-8.664c-.55 1.268-1.405 2.38-2.5 3.236h11.2l-.048-3.236zm-7.27-4.033l-1.1 3.236h8.365v-3.236z" fill="#f1ba39"/><path d="M128.512 69.908h-4.133l-.35.05-.3.747h5.13a5.53 5.53 0 0 1-.347-.797zm-1.542 12.9h15.087l-.1-.8h-22.955l-.3.8h8.268zm1.046-4.033H141.4l-.15-.8h-20.666l-.35.8zm3.934-4.033l-.9-.8h-8.664l-.348.8zm10.606 32.315v-.8H114.72a4.28 4.28 0 0 1-.05.8z" class="AE"/><path d="M128.213 69.26c.1.2.15.4.25.6.1.3.25.548.35.8a11.97 11.97 0 0 0 2.191 3.236c.3.3.6.548.9.8 2.15 1.647 4.814 2.477 7.52 2.34.268.008.535-.008.8-.05.25 0 .448-.05.7-.05 8.614-1.1 9.31-11.6 2.888-14.987-5.925-3.485-8.365-7.07-8.614-9.112.007-.055-.012-.11-.05-.15v-.2c0-.15-.05-.3-.05-.448a8.53 8.53 0 0 0-15.645-3.046l.05.05a11.41 11.41 0 0 0 6.772 3.535c-.05.946-.05 1.892-.05 2.788v1.743c.05 1.743.15 3.336.3 4.83.212 2.43.73 4.82 1.544 7.12.147.15.147.15.147.2z" fill="#ae7f2c"/><path d="M133.292 110.24h-14.3l-.946 4.58a121.09 121.09 0 0 0-2.191 21.261v30.622h14.54l-.05-3.286-.5-27.485 3.436-25.693z" fill="#394450"/><path d="M112.878 83.152l-2.54 2.888h6.224zm22.755 10.954l1.1-3.236h-11.8l-.35 1.394-1.793-1.394h-15.688l4.033 3.236zM129.1 78.77H128l-.8 3.236h12.3l-6.224-3.236zm0 4.033h-2.14l-.8 3.236h12.2l1.145-3.236zm-.5-6.473l-.4 1.643h3.535zm-6.174 26.64a8.44 8.44 0 0 0 7.718 0zm-4.83-16.133h-7.967l-2.838 3.236h14.987zm16.332 12.1h-16.73l3.934 3.137.1.1h10.207a7.99 7.99 0 0 0 2.49-3.237zm.3-.8l1.1-3.236h-23.2l3.236 2.64.8.6zm-8.265-11.3l-.846 3.236h11.9l.35-1.1.747-2.14h-12.15z" fill="#f0ba3e"/><path d="M124.927 90.87h17.626c.01-.268-.007-.536-.05-.8h-35.7l-.3.3.6.5zm.35-4.033h17.128c0-.25-.05-.548-.05-.8h-24.6c-.05.25-.15.5-.2.747l-.946-.747h-6.224l-.7.8zm0 16.133h17.377v-.8H114.97c0 .25-.05.548-.05.8zm0-4.033h17.328v-.8h-27.287c-.05.25-.05.548-.1.8zm3.834-4.033h13.444v-.8h-31.47l1 .8z" class="AE"/><path d="M102.97 77.376a.51.51 0 0 0-.3.249c-.1.15-.05.35-.15.448-.1.15-.35.2-.5.35s-.15.448-.3.647a1.34 1.34 0 0 1-.4.349c-.263.262-.342.657-.2 1a3.76 3.76 0 0 0 .548.7c1.195 1.245 2.888 1.842 4.033 3.187l3.187 3.286 3.934-4.48-3.784-2.988-1-.846c-.557-.64-1-1.362-1.344-2.14a2.1 2.1 0 0 0-.8-1.145 4.91 4.91 0 0 0-1.2-.149 3.14 3.14 0 0 1-1.145-.4L100.662 73a.53.53 0 0 0-.747 0 .53.53 0 0 0 0 .747l3.187 3.386c.05.1-.05.2-.15.25z" class="AC"/><g class="AD"><path d="M119.102 170.785l.05-.05c-.013 0-.026.005-.036.014s-.015.022-.014.036zm-2.4 1.295l-.35.15c.1-.05.25-.1.35-.15zm3.834-3.087zm-2.09-.747c.688.006 1.372.1 2.04.25-.67-.16-1.353-.243-2.04-.25h-.05a3.22 3.22 0 0 0-2.141.647c.617-.458 1.374-.687 2.14-.647zm.25 1.195l-.4.15c.15 0 .25-.1.4-.15l.6-.3c-.19.12-.4.22-.6.3z"/><path d="M119.75 168.894c.1-.05.15-.1.25-.15-.525-.1-1.058-.15-1.593-.15.534 0 1.068.05 1.593.15-.1.05-.15.1-.25.15zm.9-.35c.05 0 .15.05.2.05-.104 0-.154-.05-.203-.05zm-.647 1.295l-.3.3h.05a1.32 1.32 0 0 0 .246-.3zm-3.635.35a.7.7 0 0 1-.448-.7.76.76 0 0 1 .349-.6.85.85 0 0 0-.349.647.59.59 0 0 0 .448.647 1.1 1.1 0 0 0 .7.1c-.24.015-.478-.017-.704-.095z"/></g><path d="M138.27 161.923l.25.35 2.838-2.09-2.838 2.09z" class="AC"/><path d="M137.276 168.694c-.05.1-.15.25-.2.35a.8.8 0 0 0 .2-.349zm-.548 1c-.1.1-.15.2-.25.3.1-.105.15-.204.25-.304zm1.344-3.734a1.1 1.1 0 0 1-.05.4 1.24 1.24 0 0 0 .05-.404zm-.647 0a4.12 4.12 0 0 1-.349.647 6.11 6.11 0 0 1-1.145 1.394 1.64 1.64 0 0 1-.647.349l-.15.05h.15a1.64 1.64 0 0 0 .647-.349 5.2 5.2 0 0 0 1.145-1.394 4.56 4.56 0 0 0 .349-.7c.175-.372.392-.723.647-1.046v-.05a3.36 3.36 0 0 0-.647 1.095zm-2.888 2.14c-.133-.225-.17-.495-.1-.747a3.27 3.27 0 0 1 1.344-1.792c.66-.493 1.4-.866 2.19-1.1a7.08 7.08 0 0 0-2.191 1.145c-.66.406-1.14 1.046-1.344 1.792a.73.73 0 0 0 .1.698z" class="AD"/><path d="M122.537 167.103h5.776v-.4h-5.776z" class="AC"/><path d="M128.413 168.794c0-.747.1-1.643.1-1.643h-3.884v1.643z" class="AD"/><g class="AB"><path d="M122.786 171.433c.3.25.946.548 1.245.25.163-.18.184-.445.05-.647a1.72 1.72 0 0 0-.6-.6c-.583-.443-1.22-.812-1.892-1.1l.15.3.05.05a6.3 6.3 0 0 0 .647 1.295 1.37 1.37 0 0 0 .351.453zm-.7-.25a7.29 7.29 0 0 1-.7-1.394v-.05c-.1-.3-.25-.647-.548-.747h-.24a5.18 5.18 0 0 1-.6.846z"/><path d="M122.288 167.1h-.8l-.647 1.494a8 8 0 0 1 2.888 1.494c.296.197.55.45.747.747.203.374.143.836-.15 1.145a.92.92 0 0 1-.647.2 1.86 1.86 0 0 1-1.145-.5l-.3-.3c0 .05 0 .05-.05.1s-.1.1-.15.1-.1 0-.1-.05l-2.14-1.394c-.103.128-.22.245-.348.35l1.394 1.394c.047.035.075.09.075.15s-.028.115-.075.15a.25.25 0 0 1-.3 0l-1.444-1.394a1.79 1.79 0 0 1-.5.349l.5.846a.22.22 0 0 1-.05.249c-.05 0-.05.05-.1.05s-.15-.05-.15-.1l-.5-.846c-.15.1-.348.2-.5.3l.5.846v.05c-.001.078-.038.152-.1.2-.05 0-.05.05-.1.05-.075-.012-.145-.047-.2-.1l-.5-.9-.647.3.4.6c.06.1.038.226-.05.3-.05 0-.05.05-.1.05s-.15-.05-.15-.1l-.4-.7-4.68 1.444h17.08l.15 1.792-.15-1.792-.35-4.88h-3.82v-1.643h-2.4v-.05z"/></g><path d="M121.94 171.532c.05 0 .05.05.1.05s.15-.05.15-.1 0-.05.05-.1c-.05-.05-.1-.15-.15-.2l-2.042-1.345c-.1.1-.15.2-.25.3zm-1.295.7c.055.007.11-.012.15-.05.047-.035.075-.09.075-.15s-.028-.115-.075-.15l-1.394-1.394c-.1.05-.15.15-.25.2l-.05.05 1.444 1.394c.001.097.05.097.1.097zm-1.693.05c.05 0 .05 0 .1-.05.1-.05.15-.2.05-.25l-.5-.846c-.1.077-.227.144-.35.2l.5.846c.056.05.125.085.2.096zm-1.046.4a.26.26 0 0 0 .2.1c.05 0 .05 0 .1-.05a.26.26 0 0 0 .1-.2v-.05l-.5-.846c-.1.05-.25.1-.35.15zm-1.145.2c.05.05.1.1.15.1s.05 0 .1-.05c.1-.05.1-.2.05-.3l-.4-.6c-.1.05-.25.1-.35.15l.448.7z" class="AD"/><path d="M122.04 173.673h-10.357v1.792h17.228l-.15-1.792z" class="AK"/><path d="M120.844 168.993c.3.1.448.448.548.747v.05c.173.477.408.93.7 1.344.037.075.088.143.15.2.087.112.188.213.3.3a2.14 2.14 0 0 0 1.145.5 1 1 0 0 0 .647-.2.97.97 0 0 0 .149-1.145c-.197-.296-.45-.55-.747-.747a8.42 8.42 0 0 0-2.888-1.494c-.05 0-.15-.05-.2-.05-.055.007-.11-.012-.15-.05-.67-.16-1.353-.243-2.04-.25h-.05a3.3 3.3 0 0 0-2.141.647 1.06 1.06 0 0 0-.349.6c.016.296.186.562.448.7.234.106.494.14.747.1.602-.05 1.192-.2 1.743-.448.226-.097.442-.213.647-.348.323-.216.675-.385 1.046-.5h.1a.3.3 0 0 0 .196.043zm1.544 1.942a6.29 6.29 0 0 1-.647-1.294l-.05-.05-.15-.3a10.35 10.35 0 0 1 1.892 1.1c.247.147.453.353.6.6a.6.6 0 0 1-.05.647c-.3.3-.946 0-1.245-.25a1.75 1.75 0 0 1-.351-.454zm-4.083-1.344c-.4.152-.82.253-1.245.3-.184.008-.368-.01-.548-.05-.05 0-.05-.05-.1-.05-.093-.048-.15-.144-.15-.25 0-.15.1-.25.25-.348a2.91 2.91 0 0 1 1.892-.548 8.63 8.63 0 0 1 1.593.149c-.1.05-.15.1-.25.15-.15.1-.3.15-.448.25l-.6.3c-.146-.002-.246.098-.395.098z" class="AD"/><path d="M138.27 161.923l.25.35 2.838-2.09 1.842-1.344-.2-.3h-.05z" class="AC"/><path d="M141.16 162.37l2.987-2.19.05-.05-.9-1.394-5.03 3.635 1.892-1.344z" class="AD"/><g class="AB"><path d="M134.587 175.366l13.992-10.108zm12.8-11.452l1.145 1.344-1.145-1.344-3.145-3.734-.1.05-2.988 2.19-.946-1.344-1.892 1.344-.647.5.35 1.543h.1c.05 0 .05-.05.1-.05.97-.286 1.977-.42 2.987-.4a2.45 2.45 0 0 1 1.046.2.97.97 0 0 1 .548 1c-.15.7-1.046.846-1.593.8a.72.72 0 0 1-.349-.1v.05c0 .1-.05.2-.15.2l-2.59.15a1.77 1.77 0 0 1-.1.5l1.942.3c.1 0 .2.1.15.2 0 .1-.1.15-.2.15h-.05l-1.942-.3c-.044.207-.11.408-.2.6l.9.4c.048.018.086.055.105.103s.017.1-.005.146a.26.26 0 0 1-.2.1h-.1l-.9-.4c-.1.15-.15.35-.25.5l.9.4c.048.018.086.055.105.103s.017.1-.005.146c-.048.062-.122.1-.2.1h-.1l-.946-.4c-.1.2-.25.4-.35.6l.647.25c.048.018.086.055.105.103s.017.1-.005.146c-.05.1-.1.15-.2.15h-.1l-.747-.3-2.938 3.884z"/><path d="M140.463 165.806a8.66 8.66 0 0 1-1.344-.7l-.05-.05c-.25-.15-.6-.4-.9-.3-.05 0-.1.05-.15.1v.05c.05.33.05.67 0 1zm1.892-.7a.65.65 0 0 0-.349-.6c-.27-.102-.557-.152-.846-.15-.72-.01-1.437.057-2.14.2v.05c.1.05.2.15.3.2l.05.05a6.29 6.29 0 0 0 1.295.647c.167.095.356.147.548.15.396.004 1.043-.146 1.143-.544z"/></g><path d="M140.612 166.205c.108-.007.193-.092.2-.2v-.05c-.1-.05-.2-.05-.3-.1l-2.4.15a1.1 1.1 0 0 1-.05.4l2.54-.2zm-.747 1.344c.1 0 .2-.05.2-.15s-.05-.2-.15-.2l-1.942-.3c-.05.15-.05.25-.1.4zm-1.344 1.046c.078-.001.152-.038.2-.1.022-.046.024-.1.005-.146s-.057-.085-.105-.103l-.9-.4c-.05.1-.1.25-.15.35l.9.4zm-.4.9a.26.26 0 0 0 .2-.1c.022-.046.024-.1.005-.146s-.057-.085-.105-.103l-.9-.4a2.86 2.86 0 0 1-.2.349l.946.4zm-.846.8a.26.26 0 0 0 .2-.1c.022-.046.024-.1.005-.146s-.057-.085-.105-.103l-.647-.25a2.17 2.17 0 0 0-.2.348l.747.3z" class="AD"/><path d="M133.54 173.922l1.046 1.444 13.99-10.108-1.195-1.344z" class="AK"/><path d="M135.93 167.998a5.2 5.2 0 0 0 1.145-1.394l.35-.647c.15-.385.37-.74.647-1.046.05-.05.1-.1.15-.1.25-.1.6.15.9.3l.05.05a8.5 8.5 0 0 0 1.344.7c.1.05.2.05.3.1s.25.05.35.1c.548.05 1.444-.15 1.593-.8a.97.97 0 0 0-.548-1 2.6 2.6 0 0 0-1.046-.2c-1.008.01-2.01.145-2.987.4-.05 0-.05.05-.1.05h-.1a8.21 8.21 0 0 0-2.191 1.1c-.66.406-1.14 1.047-1.344 1.793a.81.81 0 0 0 .1.747.71.71 0 0 0 .6.3l.15-.05c.23-.105.446-.24.64-.403zm5.278-2.4l-.548-.15c-.446-.185-.88-.402-1.295-.647l-.05-.05a1.04 1.04 0 0 1-.3-.2v-.05a10.39 10.39 0 0 1 2.141-.2c.29-.003.576.047.846.15a.69.69 0 0 1 .349.6c-.097.447-.744.596-1.143.547z" class="AD"/><path d="M70.306 109.143a7.66 7.66 0 0 1-.946-.846l-1.842-1.892c-.102.95-.41 1.868-.9 2.69h3.685zm-48.6-48.15h.3c-.11-.056-.227-.1-.35-.1-.27-.042-.548-.007-.8.1z" class="AF"/><path d="M75.885 100.183l.3-.6h-.8c.184.185.35.386.5.6z" class="AL"/><path d="M76.18 99.583l2.04-4.282H71.6l3.784 4.282z" fill="#6fa9dc"/><path d="M52.48 166.504h2.64l.747-3.436H49.94q1.195 1.718 2.54 3.436z" class="AH"/><path d="M42.323 151.666c.15.2.25.448.4.647v-6.473h-.4zm16.48 14.838l-1.145 5.278a3.82 3.82 0 0 1-1.693-.8l3.834 4.58h14.44c-1.295-6.274-9.71-.5-9.162-8.116 0-.3.05-.6.05-.9h-6.324v-.05zm-6.324 0l3.037 3.884a4.97 4.97 0 0 1-.5-2.987c0-.3.05-.6.05-.9z" class="AB"/><path d="M59.452 135.035a5.5 5.5 0 0 1 2.739 4.73 5.2 5.2 0 0 1-.6 2.44 6.3 6.3 0 0 1-5.626 3.535h-2.64l-3.783 16.68.4.548h9.56l.7-3.236 5.377-24.448z" fill="#493d57"/><path d="M58.804 166.503h6.373l.7-3.286h-6.373z" class="AH"/><path d="M57.758 66.322c-.22.183-.455.35-.7.5l3.685.35.15-1.394.4.05-.3 3.187-.4-.05.15-1.394-4.282-.4a7.5 7.5 0 0 1-1.1.548c-.17-.62-.61-1.133-1.2-1.394-.013 0-.026-.005-.036-.014s-.015-.022-.014-.036a2.22 2.22 0 0 0-2.091 0c-.013 0-.026.005-.036.014s-.015.022-.014.036a4.15 4.15 0 0 0-.6.4c-.05.05-.05.1-.1.1-.05.05-.1.15-.15.2s-.05.1-.1.15c-.05.1-.1.15-.15.25 0 .05-.05.05-.05.1-.102.27-.152.557-.15.846-.006.312.062.62.2.9a5.29 5.29 0 0 1 .249 2.938c-.076.464-.284.897-.6 1.245a4.55 4.55 0 0 1-2.739 1.046c1.295 2.14 1.046 3.585-.35 5.626h.1l-.1-.05 6.87 1.942a14 14 0 0 0 2.49.2c.3 0 .548-.05.846-.05-.548-2.44.15-4.83 1.1-5.477 1.643-1.1 2.44-1.643 2.59-3.037.05-.3.2-2.09.2-2.44l.8-.448c.45-.3.6-.908.35-1.394v-.05a6.43 6.43 0 0 1-1.1-2.788c0-.15-.05-.35-.05-.5v-.05c-.1-.86-.346-1.7-.7-2.5-.05-.15-.15-.3-.2-.448-.534.87-1.17 1.67-1.892 2.4-.308.327-.642.628-1 .9zM47.55 80.164l7.668 3.685zm0 0z" class="AG"/><path d="M56.414 67.17l4.282.4-.15 1.394.4.05.3-3.187-.4-.05-.15 1.394-3.685-.35c-.188.134-.39.25-.6.348z" fill="#f8cbdb"/><path d="M42.972 67.27c.2.7.8 1.2 1 1.892.1.594.1 1.2 0 1.793a3.84 3.84 0 0 0 2.44 3.386c.45.155.92.24 1.394.25a4.26 4.26 0 0 0 2.739-1.046c.316-.348.524-.78.6-1.245a5.29 5.29 0 0 0-.249-2.938 2.91 2.91 0 0 1-.2-.9c-.003-.29.047-.576.15-.846 0-.05.05-.05.05-.1.05-.1.1-.15.15-.25.05-.05.05-.1.1-.15s.1-.15.15-.2a3.43 3.43 0 0 1 .647-.548c.013 0 .026-.005.036-.014s.015-.022.014-.036c.05-.05.1-.05.15-.1.645-.268 1.377-.23 1.992.1.013 0 .026.005.036.014s.015.022.014.036a2.21 2.21 0 0 1 .548.4c.292.27.5.616.6 1a11.24 11.24 0 0 0 1.1-.548c.2-.1.4-.25.6-.35.242-.155.475-.322.7-.5l.05-.05c.35-.25.647-.548.946-.8.753-.705 1.406-1.51 1.942-2.4 1.403-2.18 1.136-5.038-.647-6.92-.963-1.002-2.42-1.354-3.734-.9a3.38 3.38 0 0 0-3.187-1.145 4.15 4.15 0 0 0-.747.2c-.5.25-.946.6-1.444.8-1 .4-2.14.1-3.137.35-.274.053-.53.173-.747.35-.417.35-.787.754-1.1 1.2a3 3 0 0 1-.4.4c-.6.5-1.394.647-1.992 1.145a3.07 3.07 0 0 0-1 1.892c0 .15-.05.3-.05.448v.05c-.007.554.06 1.107.2 1.643a8.01 8.01 0 0 1 .349 1.842c0 .6-.15 1.195-.2 1.743.016.35.063.7.14 1.043z" fill="#2d1c17"/><path d="M54.372 82.107l-6.87-1.942.1.05 7.618 3.635 2.69 1.245c.1.05.25.1.35.15l1.693.9a7.01 7.01 0 0 1-2.241-3.884 4.83 4.83 0 0 1-.846.05 13.99 13.99 0 0 1-2.491-.203z" class="AE"/><path d="M47.5 80.165c-2.19 2.5-7.27 4.332-9.062 12.1h9.46c2.51-.001 4.916.995 6.7 2.77s2.77 4.18 2.77 6.7v17.03a5.41 5.41 0 0 1-.05.9c0 .1-.05.2-.05.35a2.12 2.12 0 0 1-.1.548c-.05.15-.05.3-.1.4-.05.15-.05.3-.1.448l-.15.448c0 .05-.05.15-.05.2h10.46a13.5 13.5 0 0 0-.548-7.17l-.8-2.3c-.548-1.743.1-2.24.747-3.386a8.56 8.56 0 0 0 .9-2.689l1.892 1.892a7.65 7.65 0 0 0 .946.846 7.45 7.45 0 0 0 4.382 1.444 7.55 7.55 0 0 0 4.531-1.444l.1-.1c1.112-.85 1.973-1.985 2.5-3.286l.1-.2 1.344-3.436 1-2.54 1.693-4.282.548-1.344-.4-.35-4.98-4.282-2.888 5.925-2.39 4.832c-.05-.05-.2-.25-.5-.6-.647-.8-1.942-2.4-3.784-4.282-1.717-1.776-3.546-3.44-5.477-4.98l1.743-2.14-1.593-1.344-3.436-2.987-2.888 2.24h-.05l-1.693-.9-.3-.15-2.74-1.245c-3.83-1.746-7.668-3.638-7.668-3.638z" class="AB"/><path d="M50.192 127.865c-.05 0-.1.05-.15.05-.15.05-.35.05-.5.1-.15 0-.25.05-.4.05s-.25.05-.4.05a4.83 4.83 0 0 1-.846.05h-9.66v1.593c.972 2.27 3.04 3.886 5.477 4.282h12.252a6.99 6.99 0 0 1 3.436.946l6.124.35-5.978 27.737-.05.15h13.444l7.47-28.83a9.85 9.85 0 0 0-7.07-12.05c-.815-.2-1.65-.302-2.5-.3H56.763c-1.115 2.893-3.565 5.064-6.57 5.823zm-12.4.3a.72.72 0 0 0 .1.349v-.35z" fill="#937fac"/><path d="M86.14 93.66l3.037-8.415a5.36 5.36 0 0 1 1.643-1.992c.382-.276.733-.593 1.046-.946a1.13 1.13 0 0 0 .1-1.295.62.62 0 0 0 .3-.9c0-.05-.05-.05-.05-.1a.97.97 0 0 0 .448-.7c.023-.28-.11-.55-.35-.7a1.52 1.52 0 0 0 .4-.8.71.71 0 0 0-.3-.6.69.69 0 0 0-.5-.249l-.15.548-.25.9-3.336.548c-.362.158-.785.03-1-.3l-.3-1.743c-.02-.127-.07-.248-.15-.35l-.05-.05a.53.53 0 0 0-.6-.1c-.29.082-.494.345-.5.647l.05 2.5h-.05v.7l-.6 1.245-.6 1.295-3.187 6.672zm-18.274-5.477l3.485-3.934 1.394-1.593c1.344-1.444 3.187-2.3 4.53-3.734.4-.4.7-.846 1.046-1.245l1.295-1.643c.05-.1.1-.15.1-.25a.71.71 0 0 0-.1-.3c-.14-.163-.382-.185-.548-.05l-2.5 2.34 2.5-2.838c.15-.17.15-.43 0-.6-.166-.19-.453-.21-.647-.05l-2.74 2.5 2.888-3.037c.15-.17.15-.43 0-.6a.41.41 0 0 0-.6-.05l-2.987 2.74 2.5-2.54a.45.45 0 0 0 .149-.349c-.002-.108-.037-.212-.1-.3-.167-.19-.453-.21-.647-.05l-3.734 2.988c-.153.147-.342.25-.548.3a.56.56 0 0 1-.548-.149c-.138-.15-.16-.375-.05-.548l.946-1.145c.1-.11.154-.252.15-.4a.66.66 0 0 0-.647-.647.8.8 0 0 0-.448.149l-2.14 1.942a3.28 3.28 0 0 0-1 1.693c-.2.647-.25 1.295-.448 1.942-.182.676-.585 1.272-1.145 1.693l-4.275 3.396 3.436 2.938 1.444 1.444z" class="AG"/><path d="M93.61 70.505l.15-.647a1.36 1.36 0 0 0-.946-1.643l-5.527-1.494a1.36 1.36 0 0 0-1.643.946l-1.544 5.875 1.394-5.228h.05zm-4.83-2.24c.048-.093.144-.15.25-.15l1.544.4c.013 0 .026.005.036.014s.015.022.014.036l.05.05c.004.038.02.074.05.1v.05c0 .013-.005.026-.014.036s-.022.015-.036.014v.05c-.04.038-.094.057-.15.05h-.05l-1.544-.4c-.05 0-.1-.05-.15-.1zm-3.286 11.95v-.7l-2.79-.745-.2.647a1.36 1.36 0 0 0 .946 1.643l1.444.4.6-1.245z" class="AE"/><path d="M85.492 77.027c.006-.302.21-.565.5-.647.205-.045.42-.01.6.1l.05.05c.077.063.13.15.15.25v.1l.3 1.743a.87.87 0 0 0 1 .3l3.336-.548.25-.9.15-.548.35-1.245 1.394-5.228h-.05l-8.066-2.14-1.394 5.228-1.404 5.23 2.74.747h.05zm3.436-8.465L90.52 69h.05c.05 0 .1-.05.15-.05v-.05c0-.05.05-.05.05-.1s0-.05-.05-.1c0-.013-.005-.026-.014-.036s-.022-.015-.036-.014l-.05-.05-1.544-.4c-.1-.05-.2 0-.25.15v.2c0-.05.05-.05.1 0z" fill="#f58b6e"/><path d="M62.2 139.815a5.74 5.74 0 0 0-2.788-4.78 6.5 6.5 0 0 0-3.44-.946H38.3v.448h-.448v-.448h-4.88l4.033 8.166h24.547c.434-.74.658-1.583.648-2.44z" fill="#2767b0"/><path d="M61.592 142.255H37.045l1.892 3.535h17.03a6.3 6.3 0 0 0 5.626-3.535zm-23.747-7.718h.4v-6.373h-.4v6.373z" class="AB"/><path d="M57.114 120.894c.05-.15.05-.25.1-.4.05-.2.05-.35.1-.548 0-.1.05-.2.05-.35.042-.298.058-.6.05-.9v-17.023c.001-2.51-.995-4.916-2.77-6.7s-4.18-2.77-6.7-2.77H28.232c-2.903-.003-5.643 1.34-7.42 3.635-.054.092-.12.176-.2.25l.946 4.332q.97 4.407 2.24 8.664l1.743 5.676a159.85 159.85 0 0 0 4.929 13.394H47.85a4.83 4.83 0 0 0 .846-.05c.15 0 .25-.05.4-.05s.25-.05.4-.05c.15-.05.35-.05.5-.1.05 0 .1-.05.15-.05a9.41 9.41 0 0 0 6.573-5.875c0-.05.05-.15.05-.2l.15-.448a1.77 1.77 0 0 0 .2-.448z" fill="#2767b0"/><path d="M340.41 108.517h-32.77v.15h34.98l.04-.15h-2.25z" class="AF"/><path d="M311.98 84.805h-5.905l.342.785.414.414-.163.163 3.085 7.082zm-57.323-44.783h93.063v.395h-93.063v64.9h6.042a9.87 9.87 0 0 1 .807-5.406l5.826-14.9c1.57-4.013 5.44-6.653 9.748-6.652h5.153c2.553-3.372 2.28-5.024.8-7.4-.5-.817-1.137-1.716-1.848-2.8a8.6 8.6 0 0 1 13.271-10.832c1.298 1.095 2.83 1.878 4.48 2.287-.74.137-1.5.137-2.242 0a9.04 9.04 0 0 0 1.83 1.75c-.64.004-1.28-.072-1.9-.226.112.405.2.818.234 1.236v.045c.008.176.02.345.04.5a6.75 6.75 0 0 0 1.1 2.833c.16.226.218.5.158.78a.98.98 0 0 1-.47.64l-.78.43c0 .382-.177 2.148-.2 2.472-.136 1.425-.978 2.065-2.87 2.6-2.22.625-1.64 4.082-1.245 5.678h3.817c1.792 0 3.553.46 5.116 1.336V53.734l-.583.583-1.162-1.162 1.744-1.744v-1.78h1.785l2.36-2.36 1.16 1.162-1.2 1.2h39.422l-1.2-1.2L345 47.27l2.36 2.36h1.782v1.777l1.744 1.744-1.16 1.166-.583-.583v31.073h-30.8l-2.326 13.7c-.283 1.666-1.257 3.135-2.682 4.044s-3.168 1.173-4.798.727l-.92-.252v2.28h16.724l-.9-8.7h3.74l-.108-1.268-.042-.5-.12-1.4a.31.31 0 0 1 .284-.337l.154-.013a.31.31 0 0 1 .337.284l.274 3.23h.478l-.094-4.446a.31.31 0 0 1 .305-.318h.154a.31.31 0 0 1 .318.3l.03 1.4.01.505.054 2.557h.5l.74-6.15a.31.31 0 0 1 .346-.272l.154.018a.31.31 0 0 1 .272.347l-.227 1.886-.5 4.168h1.7l-.9 8.7h5.843l-.2-1.16h1.254v-.034h-1.254v-1.606h4.2v1.606h-1.3v.034h1.254l-.2 1.16h20.8q.022-.34.046-.677h-.014l-.2-6.128-8.24-.08-.058-4.634-3.216-.317a2.91 2.91 0 0 0-1.158.2l-3.056 1.2a1.59 1.59 0 0 1-1.094.023l-1.464-.5a.75.75 0 0 1-.5-.566l-.053-.232-.373.035a.55.55 0 0 1-.578-.378l-.08-.25-1.37.416a.49.49 0 0 1-.6-.289.48.48 0 0 1 .212-.591l3.32-1.9a.27.27 0 0 0 .134-.283c-.02-.113-.1-.2-.225-.217a4.78 4.78 0 0 1-1.659-.568.43.43 0 0 1-.177-.505.43.43 0 0 1 .455-.283l4.62.5a3.21 3.21 0 0 1 .659.139 9.17 9.17 0 0 0 3.224.363l2.938-.08v-.008l8.114-.2-.14-7.4c-.138-9.743 5.374-14.512 6.24-18.4l.26-.073v-.447a3.02 3.02 0 0 0-2.081-2.385l-.725-.077h-.01q-.312-.024-.622-.06l-.24-.027c-1.724-.227-1.945-.66-2.467-2.87a1.97 1.97 0 0 0-.245-.676c-.447-.714-1.233-.52-1.42-1.23-.205-.788.4-1.892.147-3.673a5.09 5.09 0 0 0-.1-.56c0-.014-.002-.028-.007-.04a8.34 8.34 0 0 1 .672-4.685 3.36 3.36 0 0 1-2.607-2.3c-.215-.778.14-1.6.855-1.975.555-.214 1.2-.062 1.758-.267.483-.178.842-.6 1.334-.742.62-.18 1.265.133 1.9.132.826 0 1.607-.5 2.43-.426.487.1.963.227 1.422.412v-8.194h-113.04zm6.974 10.317l-.056-1.642 12.687-.437.056 1.642zm.688-3.612l-.062-1.23 16.8-.85.062 1.23z" fill="#f9d581"/><path d="M340.948 105.308l-.54 3.206h21.162q.07-1.6.175-3.206zm-3.237 3.2l-.078-.46-.465-2.745h-5.847l-.332 3.206zm-13.012 0l-.332-3.206H307.64v3.206zm-64-3.206h-6.042v3.206h8.146a4.77 4.77 0 0 1-2.104-3.21z" fill="#f1ba39"/><path d="M347.72 40.022h-93.063v.395h93.063z" class="AB"/><path d="M262.247 45.483l16.804-.857.063 1.23-16.804.857z" fill="#1b4481"/><path d="M261.575 48.698l12.687-.436.056 1.642-12.687.436z" fill="#d46827"/><path d="M342.618 108.667h-34.98v5.748h53.768l.156-5.748z" class="AO"/><path d="M337.71 108.517l-.078-.52h2.858l-.078.52.078-.46.462-2.745.2-1.16H339.9v1.927h-1.668v-1.928h-1.254l.2 1.16.465 2.745z" class="AE"/><path d="M341.18 104.117v-1.606h-4.21v1.606h4.21zm-3.55 3.88l.078.52h2.7l.078-.52z" class="AB"/><path d="M338.222 106.08h1.668v-1.967h-1.668v1.962z" fill="#b3c8ca"/><path d="M331.26 90.56a.31.31 0 0 0-.272-.347l-.154-.018a.31.31 0 0 0-.346.272l-.167 1.386.772.093.167-1.386z" class="AI"/><path d="M331.033 92.442l-.772-.093.06-.5-.573 4.763h.783z" fill="#d3e175"/><path d="M331.034 92.442l.06-.5-.772-.093-.06.5z" class="AJ"/><path d="M329.144 92.152a.31.31 0 0 0-.318-.3h-.154a.31.31 0 0 0-.3.318l.03 1.4.777-.016z" class="AI"/><path d="M329.185 94.054l-.777.016-.01-.505.064 3.046h.777z" fill="#bc762e"/><path d="M329.185 94.052l-.01-.505-.777.016.01.505z" class="AJ"/><path d="M327.708 93.38a.31.31 0 0 0-.337-.284l-.154.013a.31.31 0 0 0-.284.337l.118 1.39.774-.066-.118-1.39z" class="AI"/><path d="M327.826 94.772l.043.5-.775.066.108 1.268h.78z" class="AB"/><path d="M327.825 94.772l-.774.066.042.5.775-.066z" class="AJ"/><path d="M331.38 104.734l-.39 3.784 1.232-11.906h-8.758l.968 9.355z" class="AE"/><path d="M331.38 104.733l-6.95 1.233.264 2.55H331z" fill="#f4abc4"/><g class="AE"><path d="M349.158 51.412V49.63h-1.78zm-9.925 25.935h-19.6l-.62 3.66h20.22v-3.66zm-15.18 1.54h-3.937v-.205h6.15v.205zm4.47-11.078h-.878v-.205h.878v-2.418h-2.008v5.393h2.007zm-2.007 2.975h2.007v4.014h-2.008zM339.233 75h-7.478v-4.22h-3.023V75h-8.466a4.71 4.71 0 0 0-.453 1.295l-.143.845h19.565V75zm-8.712-4.424h1.234v-2.77h-3.023v2.77zm-7.288-13.4h2.007v2.345h-2.007zm-17.226 27.48l.067.154h5.905l.948-3.593h-8.9v-.205h8.945l.966-3.66h-6.42v-.205h6.475l.564-2.14h-8.218v5.7h-.2v-5.7h-2.007v5.7h-.206v-24.7h.205v3.525h2.008v-3.525h.205v3.525h16.675v-2.55h15.66v.205h-13.24v2.345h3.284v8.083h3.023v-4.73h-2v-.205h2v-3.145h11.052V54.25h-40.4v-.205h40.4v-.308h.206v6.382h.055v17.023h2.055v.205h-2.055v3.9h-3.832v-.03h-20.26l-.6 3.593h30.8V53.734l-4.1-4.1H305.63l-4.1 4.1v25.968c1.993 1.117 3.565 2.857 4.476 4.953zm6.1-28.76h10.23v.205h-7.814v2.055h-.205v-2.053H312.3v2.053h-.205v-2.26zm27.136 4.223h3.572v-.4h-10.847v2.94h7.275v-2.55zm-21.828 6.96c-.157.112-.36.134-.538.06l.96 1.015c.237-.513.356-1.072.35-1.637zM301.527 49.63v1.782l1.782-1.782zm14.875 18.845a.8.8 0 0 0-.135.553c.03.198.2.35.388.374a.95.95 0 0 0 .65-.307c.057-.062.108-.128.152-.2l-.817-.864a1.5 1.5 0 0 1-.237.447zm5.154 4.752a9.02 9.02 0 0 0-1.18 1.57h2.665l-.888-.94zm10.4-10.355v4.73h2.1v.205h-2.1v2.77h.775v.205h-.775v4.014h7.275V62.872zm-27.82-3.147h2v15.072h-2.007zm22.38 0h2.007v5.254h-2.005z"/><path d="M314.643 73.4a18.48 18.48 0 0 0-.478-1.8 3.65 3.65 0 0 1 .8-3.086c.24-.334.552-.612.91-.813.118-.055.246-.084.376-.085l-1.773-1.876-.772-1.353 1.336.818-.03.03.03-.03 1.5 1.58c-.072-.228.008-.477.2-.62l1.448-1.085c1.092-.772 1.673.165 1.658.9v1.93c.247.236.7.028 1.017.146.3.11.445.472.733.617s.647.05.9.234c.117.083.193.214.3.307a3.52 3.52 0 0 0 .513.274 1 1 0 0 1 .305 1.358 14.63 14.63 0 0 1-1.528 1.8l.285.3 1.306 1.38a.31.31 0 0 1-.012.44l-.02.018h2.67v-9.612h-3.183v-.208h3.182v-5.254h-19.963v15.072h8.248a5.99 5.99 0 0 0 .044-1.4z"/></g><path d="M349.158 53.735l.583.583 1.16-1.162-1.744-1.744-1.782-1.777-2.36-2.36-1.16 1.16 1.2 1.2zm-42.328-5.3l-1.162-1.162-5.886 5.888 1.16 1.162 4.683-4.683zm-.414 37.16l.25.577.163-.163z" fill="#d46827"/><g fill="#4684c4"><path d="M306.147 55.994h.205v3.525h-.205zm0 19.007h.205v5.7h-.205zm34.644-20.957h2.02v.205h-2.02zm-10.265 16.533h1.232v.205h-1.232zm1.437 0h.775v.205h-.775zm11.107 6.564h2.055v.205h-2.055zm-11.11-9.537h2.11v.205h-2.11zm-3.33 2.975h.1v-2.775h-.2v2.77zm.1.205h-.2v4.014h-2.006v.205h2.21zm-.2-11.058v5.253h.1v.205h-.1v2.42h.2V59.52h-2.21v.205zm-22.378 0h.205v15.072h-.205z"/><path d="M328.628 65.184v-.205h-2.11v.205h2.11zm-8.51-9.292h2.212v.205h-2.212zm-5.807.205h.205v2.053h-.205zm10.93 1.078h.205v2.34h-.205zm11.236-.205h2.212v.205h-2.214zm-12.422 21.71h2.212v.205h-2.212zm-20.12-22.686h.205v3.52h-.205zm0 19.007h.205v5.7h-.205zm2.315 6.006h-2.213v.205h8.89l.054-.205zm12.763 0l-.035.205h20.255v-.205zm24-27.27h-.206v5.786h.206zm-38.4.308H302.4v.205h38.392v-.205zm24.02 16.738h1.894v-.205h-4v.205h2.11zm10.606 6.358h-19.57l-.035.205h19.6zm-29.494 0h-2.212v.205h6.42l.054-.205zm17.908-9.54v.205h4.106v-.205h-4.106z"/><path d="M314.6 74.797h-10.46V59.725h22.173v5.258h.1v.205h-.1V74.8h-2.667l-.093.088a.31.31 0 0 1-.44-.012l-.07-.075h-2.665l-.11.2h6.256V59.52h-3.286v.1h-.205v-.1h-19.096v15.482h10.632l.01-.04.023-.165zm17.154-4.22v4.424h7.48v-.205h-7.275V62.872h-.205v7.705zm.205-10.85h10.847v.39h.206v-.6h-11.258v3.145h.205z"/><path d="M339.233 62.872v-.205h-9.48v.205h9.48zm-16.1 2.106v.206h3.285v-.205h-3.285zm-10.828-8.88h7.814v-.205h-8.02v2.26h.205zm10.93 3.525v-2.448h13.243v-.2h-13.45v2.652zm-.9 19.06h-2.212v.2h3.937v-.205z"/></g><path d="M339.233 61.47v19.773h3.832V61.47z" class="AM"/><path d="M339.233 60.118v1.35h3.832v-1.35h-3.832z" fill="#394450"/><path d="M266.4 102.933l-4.9-3.027c-.772 1.7-1.05 3.564-.806 5.406.22 1.315.982 2.478 2.1 3.206l.234.15c1.036.572 2.183.916 3.363 1.01v-6.742z" class="AQ"/><path d="M275.466 175.67H285.8v-8.562h-5.482c.152 7.123-3.6 2.36-4.852 8.562zm14.878-9.1h-.04l-.84 9.1h9c-1.262-6.2-3.334-1.44-3.1-8.562h-5.066l.05-.548z" class="AB"/><path d="M286.118 66.25l.25-.1c-.2-.265-.323-.566-.392-.885l.14.974z" class="AC"/><path d="M286.122 66.25q-.052-.5-.14-.974a2.4 2.4 0 0 1 3.395-2.661 2.4 2.4 0 0 1 1.352 2.154l.052-.2a8.22 8.22 0 0 0-.053-4.184c1.012.9 2.264 1.46 3.6 1.642l-1.535-2.414a15.7 15.7 0 0 0 3.847 1.524 7.68 7.68 0 0 0 1.9.226 9.02 9.02 0 0 1-1.831-1.749c.74.137 1.5.137 2.242 0a11.09 11.09 0 0 1-4.48-2.287 8.6 8.6 0 0 0-13.341 10.729c.02.033.045.07.07.1l1.848 2.8a7.08 7.08 0 0 0 .809-.267c2.02-.8 2.513-2.2 2.27-4.438z" fill="#1c0301"/><path d="M298.02 65.764c-.577-.85-.953-1.817-1.1-2.833l-.04-.51v-.045a7.58 7.58 0 0 0-.234-1.236 15.7 15.7 0 0 1-3.847-1.524l1.536 2.415c-1.336-.18-2.588-.752-3.6-1.643.378 1.367.396 2.808.053 4.184l-.052.2a2.4 2.4 0 0 0-4.332-1.424 2.4 2.4 0 0 0-.023 2.815l-.25.1c.242 2.242-.25 3.638-2.27 4.44a7.15 7.15 0 0 1-.809.267c1.47 2.386 1.743 4.04-.8 7.41h10.362c-.4-1.6-.973-5.054 1.245-5.678 1.893-.534 2.735-1.174 2.87-2.6l.21-2.472.78-.43c.24-.138.41-.37.47-.64s.002-.554-.158-.78z" class="AQ"/><path d="M272.213 157.215c.564 3.307 1.18 6.605 1.846 9.893h11.746v-27.734h-13.17zm33.11-25.236c.772.001 1.498.37 1.953.994-.467-1.947-1.133-3.84-1.988-5.65v4.657zm0 7.39h-.035v13.914l2.353-14.657a12.18 12.18 0 0 0 .116-2.155v.465c0 .646-.256 1.265-.713 1.72s-1.076.713-1.72.713zm-13.01 0l.385 1.25-2.403 26.486h11.775l-.662-27.735zm8.8-12.512c-1.183.143-2.68.288-4.523.41-2.513.164-5.665.283-9.554.283s-7.04-.118-9.554-.283q-2.278-.143-4.545-.41l-.122 5.123h28.42z" fill="#444097"/><path d="M266.405 97.025c0-3.673 2.978-6.65 6.65-6.65h27.937a6.65 6.65 0 0 1 6.651 6.651v1.763l2.112-5.538-3.745-8.598a10.47 10.47 0 0 0-9.6-6.286H277.08c-4.31-.002-8.178 2.64-9.748 6.652l-5.826 14.887 4.9 3.027v-5.908zm6.532 29.834a83.69 83.69 0 0 0 4.545.411c2.513.164 5.665.283 9.554.283s7.042-.118 9.554-.283c1.51-.095 3.02-.23 4.522-.408l-.067-2.82H273z" class="AB"/><path d="M317.405 67.078l.773-.563a3.8 3.8 0 0 1-.35 1.637l4.258 4.5a14.58 14.58 0 0 0 1.528-1.8 1 1 0 0 0-.305-1.357 3.54 3.54 0 0 1-.513-.274c-.11-.094-.185-.224-.3-.308-.255-.182-.622-.093-.9-.234s-.43-.506-.733-.617c-.32-.117-.77.09-1.017-.145v-1.93c.015-.744-.567-1.682-1.658-.9l-1.448 1.085a.56.56 0 0 0-.2.62l.33.35a.56.56 0 0 0 .534-.055zm.052 1.814c-.044.07-.095.138-.152.2a.95.95 0 0 1-.65.307c-.2-.023-.357-.176-.388-.374a.8.8 0 0 1 .135-.553 1.49 1.49 0 0 0 .238-.447l-.4-.412a.9.9 0 0 0-.376.085 2.81 2.81 0 0 0-.911.813 3.65 3.65 0 0 0-.8 3.086 18.53 18.53 0 0 1 .479 1.8c.04.467.025.937-.044 1.4l-.023.165-.01.04-4.814 18.247-2.112 5.538v4.24l.92.252c1.63.446 3.373.182 4.798-.726s2.4-2.378 2.682-4.045l3.77-22.21c.087-.45.24-.888.453-1.295l.11-.205c.336-.564.732-1.1 1.18-1.57l-4.1-4.334z" class="AQ"/><path d="M323.677 74.337l-.96-1.014-.565.534.96 1.014a.31.31 0 0 0 .44.012l.093-.088.02-.018a.31.31 0 0 0 .012-.44z" class="AI"/><path d="M321.805 73.49l.565-.534-.285-.3-7.05-7.446-.03.03-.534.5 7.68 8.117z" class="AB"/><path d="M322.153 73.857l.565-.534-.347-.367-.565.534z" class="AJ"/><path d="M313.704 64.388l.328.575.262-.213z" class="AB"/><path d="M315 65.236l.03-.03-.747-.457-.262.213.444.778z" class="AC"/><path d="M268.718 131.983c-1.342.001-2.43 1.088-2.432 2.43v2.524c0 .645.256 1.265.712 1.72s1.075.713 1.72.713h.035v-7.388h-.035zm36.6 0h-.032v7.39h.035c1.344 0 2.434-1.1 2.434-2.434v-2.527c-.01-1.34-1.094-2.423-2.434-2.434zm-4.09 0H272.8l-.176 7.39h28.773z" class="AH"/><path d="M272.81 131.983l.187-7.942a6.62 6.62 0 0 1-4.246-1.577v53.12h3.016l.864-36.2zm28.23-7.94l1.228 51.54h3.016v-53.118a6.62 6.62 0 0 1-4.246 1.577z" fill="#f9d581"/><path d="M307.64 105.312v-8.286c0-3.673-2.978-6.65-6.65-6.65h-27.937c-3.673 0-6.65 2.978-6.65 6.65v20.37c.004 3.65 2.95 6.618 6.6 6.648h28.04c3.65-.03 6.596-2.997 6.6-6.648z" class="AH"/><path d="M373.058 171.715a10.32 10.32 0 0 0 3.682-.884l-6.507-1.333.013.137a7.45 7.45 0 0 1 2.812 2.08z" class="AD"/><path d="M361.798 104.635h-.008q-.065.908-.117 1.817l.125-1.817z" fill="#915907"/><path d="M375.875 106.06l3.452-.1c-1.104-.443-2.267-.725-3.452-.836zm-7.936-1.375v1.593l6.97-.192v-1.065l-6.97-.332zm-.966-.016q-2.587-.037-5.174-.035l-.125 1.817 5.3-.146v-1.636z" fill="#2d1c17"/><path d="M383.14 111.955l-.135-3.68c-1.7-.974-2.378-1.738-3.677-2.308l-3.452.095v-.93q-.482-.06-.966-.108v1.066l-6.97.192v-1.593l-.966-.016v1.637l-5.3.146q-.058 1.016-.1 2.065l-.007.15q-.12 2.873-.156 5.748c-.314 23.467 2.86 53.86 2.86 53.86l12.473 2.556c.188-.08.31-.138.34-.152l.05.237 3.2.655c-3.582-38.486 3.666-46.37 2.81-59.61z" fill="#915907"/><path d="M377.08 170.68l-.34.152a10.32 10.32 0 0 1-3.682.884 7.45 7.45 0 0 0-2.812-2.08c-2.38 3.644-9.9 3.853-9.9 3.853l-.277 2.227h17.2a13.54 13.54 0 0 0-.137-4.8l-.05-.237z" fill="#22201d"/><path d="M350.3 89.78a9.17 9.17 0 0 1-3.224-.363c-.214-.07-.435-.116-.66-.14l-4.62-.49a.43.43 0 0 0-.455.283.43.43 0 0 0 .177.505c.513.3 1.076.483 1.66.568.114.016.205.104.225.217s-.033.227-.134.283l-3.32 1.9a.48.48 0 0 0-.212.591.49.49 0 0 0 .6.289l1.37-.416.08.25a.55.55 0 0 0 .579.378l.373-.035.052.232c.06.264.253.478.5.566l1.464.5c.356.122.744.114 1.094-.023l3.056-1.2a2.91 2.91 0 0 1 1.159-.2l3.216.316-.052-4.093z" class="AR"/><path d="M371.272 52.607a5.55 5.55 0 0 1 0-.558h-.005a2.35 2.35 0 0 1-.14.544zm-6.38 8.09l-.622-.06.622.06z" class="AC"/><path d="M366.437 52.16c-.95-2-1.578-4.138-1.864-6.334a6.7 6.7 0 0 1-3.967 1.047c-.672 1.464-.905 3.09-.672 4.685.004.013.006.027.006.04a4.83 4.83 0 0 1 .1.56c.252 1.78-.352 2.885-.146 3.673.185.71.97.516 1.42 1.23a11.63 11.63 0 0 0 1.623-.145c2.844-.473 4.4-2.064 3.5-4.758z" class="AR"/><path d="M363.86 41.71c-.645 0-1.3-.312-1.91-.132-.493.138-.852.564-1.335.742-.557.206-1.2.054-1.758.267-.714.375-1.07 1.197-.855 1.975.37 1.197 1.375 2.088 2.607 2.31a6.7 6.7 0 0 0 3.969-1.047 21.12 21.12 0 0 0 1.864 6.334l.1.18a2.39 2.39 0 0 1 1.736-2.913 2.42 2.42 0 0 1 2.945 1.716 2.36 2.36 0 0 1 .054.906v.557a4.43 4.43 0 0 0 3.132 4.043c.33.126.667.23 1.01.307.278-1.046.747-2.24 1.26-3.72l.043-.13c.54-1.575.603-3.275.18-4.885a8.65 8.65 0 0 0-8.305-6.423 3.72 3.72 0 0 1-.882-.1 7.35 7.35 0 0 0-1.422-.412c-.82-.08-1.6.43-2.426.424z" fill="#823927"/><path d="M375.415 56.957a7.37 7.37 0 0 1-1.011-.307c-1.795-.55-3.05-2.168-3.132-4.043l-.144-.013a2.35 2.35 0 0 0 .087-1.449 2.42 2.42 0 0 0-2.946-1.717 2.39 2.39 0 0 0-1.736 2.913l-.09-.18 2.134 6.37a1.63 1.63 0 0 1 .083.4 1.8 1.8 0 0 1-1.993 1.949l-1.036-.107a3.02 3.02 0 0 1 2.081 2.385q.06.206.11.416l7.658-2.14a11.6 11.6 0 0 1-.065-4.477z" class="AR"/><path d="M368.658 58.932a1.67 1.67 0 0 0-.083-.4l-2.134-6.37c.91 2.694-.657 4.284-3.5 4.758-.537.086-1.08.134-1.624.144.123.208.206.437.245.676.522 2.2.742 2.644 2.466 2.87l.242.027.622.06h.008l.725.077 1.036.107a1.8 1.8 0 0 0 1.997-1.95z" fill="#bf7461"/><path d="M367.712 63.606l-.26.073c-.866 3.893-6.378 8.662-6.24 18.4l.14 7.4 7.52-.19 1.205-12.994a5.12 5.12 0 0 1 7.542-4.754 5.12 5.12 0 0 1 2.687 4.408l-1.937 14.592a8.01 8.01 0 0 1-8.134 8.049l-8.65-.085.19 6.128h.02l5.173.035q.5.007.966.016c3.054.06 5.286.17 6.97.336q.515.05.966.11c1.185.11 2.347.393 3.45.836 1.3.57 1.987 1.334 3.677 2.308l.135.078.878-30.726c-.345-10.122-7.716-10.6-8.3-16.255l-8.003 2.237z" class="AB"/><path d="M370.215 98.612c2.175.037 4.273-.803 5.82-2.33s2.417-3.614 2.41-5.79l1.955-14.71c-.054-1.855-1.096-3.54-2.732-4.414s-3.615-.81-5.188.175-2.5 2.734-2.428 4.588l-1.22 13.11-15.817.395v.008l.113 8.804 8.337.08z" fill="#17344c"/></svg>